HIERARCHY
ROOT Hips
{
  OFFSET 5.84602e-005 68.8428 3.50346
  CHANNELS 6 Xposition Yposition Zposition Zrotation Xrotation Yrotation
  JOINT Spine
  {
    OFFSET 0 8.597 -4.6522
    CHANNELS 3 Zrotation Xrotation Yrotation
    JOINT Spine1
    {
      OFFSET 0 7.8454 0.4098
      CHANNELS 3 Zrotation Xrotation Yrotation
      JOINT Spine2
      {
        OFFSET 0 9.7078 -2.1609
        CHANNELS 3 Zrotation Xrotation Yrotation
        JOINT Neck
        {
          OFFSET 0 21.8761 -0.4549
          CHANNELS 3 Zrotation Xrotation Yrotation
          JOINT Head
          {
            OFFSET 0 12.3537 3.3602
            CHANNELS 3 Zrotation Xrotation Yrotation
            End Site
            {
              OFFSET 0.0001 18.9506 0.5657
            }
          }
        }
        JOINT LeftShoulder
        {
          OFFSET 2.2086 21.1115 7.2329
          CHANNELS 3 Zrotation Xrotation Yrotation
          JOINT LeftArm
          {
            OFFSET 13.1193 3.0282 -4.8998
            CHANNELS 3 Zrotation Xrotation Yrotation
            JOINT LeftForeArm
            {
              OFFSET 27.4081 -0.0973053 -0.2375
              CHANNELS 3 Zrotation Xrotation Yrotation
              JOINT LeftHand
              {
                OFFSET 22.8641 0.0662994 -0.1369
                CHANNELS 3 Zrotation Xrotation Yrotation
                JOINT LeftHandIndex1
                {
                  OFFSET 8.8614 0.775009 2.4612
                  CHANNELS 3 Zrotation Xrotation Yrotation
                  JOINT LeftHandIndex2
                  {
                    OFFSET 3.3146 -0.808304 0.5841
                    CHANNELS 3 Zrotation Xrotation Yrotation
                    JOINT LeftHandIndex3
                    {
                      OFFSET 2.2628 -0.552002 0.3989
                      CHANNELS 3 Zrotation Xrotation Yrotation
                      End Site
                      {
                        OFFSET 1.6102 -0.4807 0.2612
                      }
                    }
                  }
                }
                JOINT LeftHandMiddle1
                {
                  OFFSET 8.9937 0.895004 0.2143
                  CHANNELS 3 Zrotation Xrotation Yrotation
                  JOINT LeftHandMiddle2
                  {
                    OFFSET 4.0984 0.0113983 -0.0242
                    CHANNELS 3 Zrotation Xrotation Yrotation
                    JOINT LeftHandMiddle3
                    {
                      OFFSET 2.2716 0.00689697 -0.0138001
                      CHANNELS 3 Zrotation Xrotation Yrotation
                      End Site
                      {
                        OFFSET 2.0404 -0.1441 0.0027
                      }
                    }
                  }
                }
                JOINT LeftHandRing1
                {
                  OFFSET 8.5234 0.597198 -2.0164
                  CHANNELS 3 Zrotation Xrotation Yrotation
                  JOINT LeftHandRing2
                  {
                    OFFSET 3.7188 -0.188293 -0.2328
                    CHANNELS 3 Zrotation Xrotation Yrotation
                    JOINT LeftHandRing3
                    {
                      OFFSET 2.1191 -0.106598 -0.1332
                      CHANNELS 3 Zrotation Xrotation Yrotation
                      End Site
                      {
                        OFFSET 1.8737 -0.2304 -0.0886
                      }
                    }
                  }
                }
                JOINT LeftHandPinky1
                {
                  OFFSET 7.9094 -0.601089 -3.4825
                  CHANNELS 3 Zrotation Xrotation Yrotation
                  JOINT LeftHandPinky2
                  {
                    OFFSET 2.2874 -0.477005 -0.6314
                    CHANNELS 3 Zrotation Xrotation Yrotation
                    JOINT LeftHandPinky3
                    {
                      OFFSET 1.6774 -0.349396 -0.4633
                      CHANNELS 3 Zrotation Xrotation Yrotation
                      End Site
                      {
                        OFFSET 1.4888 -0.4091 -0.3416
                      }
                    }
                  }
                }
                JOINT LeftHandThumb1
                {
                  OFFSET 1.833 -1.3875 1.3896
                  CHANNELS 3 Zrotation Xrotation Yrotation
                  JOINT LeftHandThumb2
                  {
                    OFFSET 3.4129 -1.121 2.5732
                    CHANNELS 3 Zrotation Xrotation Yrotation
                    JOINT LeftHandThumb3
                    {
                      OFFSET 2.2474 -0.804199 1.6192
                      CHANNELS 3 Zrotation Xrotation Yrotation
                      End Site
                      {
                        OFFSET 1.6527 -0.5689 1.1317
                      }
                    }
                  }
                }
              }
            }
          }
        }
        JOINT RightShoulder
        {
          OFFSET -2.2086 21.1115 7.2329
          CHANNELS 3 Zrotation Xrotation Yrotation
          JOINT RightArm
          {
            OFFSET -13.1216 3.0287 -4.9007
            CHANNELS 3 Zrotation Xrotation Yrotation
            JOINT RightForeArm
            {
              OFFSET -27.4081 -0.0973053 -0.2375
              CHANNELS 3 Zrotation Xrotation Yrotation
              JOINT RightHand
              {
                OFFSET -22.8641 0.0664063 -0.1369
                CHANNELS 3 Zrotation Xrotation Yrotation
                JOINT RightHandIndex1
                {
                  OFFSET -8.8614 0.774994 2.4612
                  CHANNELS 3 Zrotation Xrotation Yrotation
                  JOINT RightHandIndex2
                  {
                    OFFSET -3.3146 -0.808304 0.5841
                    CHANNELS 3 Zrotation Xrotation Yrotation
                    JOINT RightHandIndex3
                    {
                      OFFSET -2.2628 -0.552002 0.3989
                      CHANNELS 3 Zrotation Xrotation Yrotation
                      End Site
                      {
                        OFFSET -1.6102 -0.4807 0.2612
                      }
                    }
                  }
                }
                JOINT RightHandMiddle1
                {
                  OFFSET -8.9937 0.894989 0.2143
                  CHANNELS 3 Zrotation Xrotation Yrotation
                  JOINT RightHandMiddle2
                  {
                    OFFSET -4.0984 0.0113983 -0.0242
                    CHANNELS 3 Zrotation Xrotation Yrotation
                    JOINT RightHandMiddle3
                    {
                      OFFSET -2.2716 0.00691223 -0.0138001
                      CHANNELS 3 Zrotation Xrotation Yrotation
                      End Site
                      {
                        OFFSET -2.0404 -0.1441 0.0027
                      }
                    }
                  }
                }
                JOINT RightHandRing1
                {
                  OFFSET -8.5234 0.597198 -2.0164
                  CHANNELS 3 Zrotation Xrotation Yrotation
                  JOINT RightHandRing2
                  {
                    OFFSET -3.7188 -0.188309 -0.2328
                    CHANNELS 3 Zrotation Xrotation Yrotation
                    JOINT RightHandRing3
                    {
                      OFFSET -2.1191 -0.106598 -0.1332
                      CHANNELS 3 Zrotation Xrotation Yrotation
                      End Site
                      {
                        OFFSET -1.8737 -0.2304 -0.0886
                      }
                    }
                  }
                }
                JOINT RightHandPinky1
                {
                  OFFSET -7.9094 -0.601105 -3.4825
                  CHANNELS 3 Zrotation Xrotation Yrotation
                  JOINT RightHandPinky2
                  {
                    OFFSET -2.2874 -0.477005 -0.6314
                    CHANNELS 3 Zrotation Xrotation Yrotation
                    JOINT RightHandPinky3
                    {
                      OFFSET -1.6774 -0.349396 -0.4633
                      CHANNELS 3 Zrotation Xrotation Yrotation
                      End Site
                      {
                        OFFSET -1.4888 -0.4091 -0.3416
                      }
                    }
                  }
                }
                JOINT RightHandThumb1
                {
                  OFFSET -1.833 -1.38751 1.3896
                  CHANNELS 3 Zrotation Xrotation Yrotation
                  JOINT RightHandThumb2
                  {
                    OFFSET -3.41299 -1.12099 2.5732
                    CHANNELS 3 Zrotation Xrotation Yrotation
                    JOINT RightHandThumb3
                    {
                      OFFSET -2.24741 -0.804108 1.6192
                      CHANNELS 3 Zrotation Xrotation Yrotation
                      End Site
                      {
                        OFFSET -1.6527 -0.5689 1.1317
                      }
                    }
                  }
                }
              }
            }
          }
        }
      }
    }
  }
  JOINT RightUpLeg
  {
    OFFSET -9.1966 3.8861 -0.7581
    CHANNELS 3 Zrotation Xrotation Yrotation
    JOINT RightLeg
    {
      OFFSET -0.7359 -41.0265 0
      CHANNELS 3 Zrotation Xrotation Yrotation
      JOINT RightFoot
      {
        OFFSET 0 -40.2855 0
        CHANNELS 3 Zrotation Xrotation Yrotation
        JOINT RightToeBase
        {
          OFFSET 0 -5.6122 11.7359
          CHANNELS 3 Zrotation Xrotation Yrotation
          End Site
          {
            OFFSET 0 0 7.8731
          }
        }
      }
    }
  }
  JOINT LeftUpLeg
  {
    OFFSET 9.1965 3.8864 -0.7581
    CHANNELS 3 Zrotation Xrotation Yrotation
    JOINT LeftLeg
    {
      OFFSET 0.7359 -41.0268 0
      CHANNELS 3 Zrotation Xrotation Yrotation
      JOINT LeftFoot
      {
        OFFSET 0 -40.2855 0
        CHANNELS 3 Zrotation Xrotation Yrotation
        JOINT LeftToeBase
        {
          OFFSET 0 -5.6122 11.7359
          CHANNELS 3 Zrotation Xrotation Yrotation
          End Site
          {
            OFFSET 0 0 7.8731
          }
        }
      }
    }
  }
}
MOTION
Frames:	6
Frame Time:	0.0333333
5.84602e-005 68.8428 3.50346 0 0 -0 0 0 -0 0 0 -0 0 0 -0 0 0 -0 0 0 -0 0 0 -0 0 0 -0 0 0 -0 0 0 -0 0 0 -0 0 0 -0 0 0 -0 0 0 -0 -0.0146107 -8.87603e-005 -2.63497e-007 2.99804e-018 -2.42657e-020 -1.42182e-022 0 0 -0 -0.0187562 -0.001176 5.858e-005 5.06224e-018 3.88251e-019 1.21329e-020 0 0 -0 -0.012269 -0.00324817 0.000675346 -1.74678e-018 3.88251e-019 -0 0 0 -0 0 0 -0 0 0 -0 0 0 -0 0 0 -0 0 0 -0 0 0 -0 0 0 -0 0 0 -0 0 0 -0 0 0 -0 0.0149955 -9.10982e-005 2.64101e-007 -9.69331e-018 1.21329e-020 -4.7394e-023 0 0 -0 0.0189956 -0.00119102 -5.96516e-005 -5.41541e-019 0 2.42657e-020 0 0 -0 0.0122698 -0.00324857 -0.000673756 -2.00796e-019 0 -1.94126e-019 0 0 -0 0 0 -0 0 0 -0 3.39842 1.33031 -0.0637918 -5.65207e-008 0.834868 -0.000436188 -3.39935 -2.16518 -0.0642563 -8.89002e-024 -1.18485e-023 -1.48106e-024 -3.39844 1.35642 0.0640283 -3.18788e-007 0.782166 -0.000588827 3.39931 -2.13858 0.0634662 1.1399e-023 0 -0 
41.1475 36.6656 19.5928 -168.753 62.6767 1.4512e-006 -0.0264891 8.6011 -0.0906915 -0.0397096 17.2023 -0.180413 -0.0397103 17.2023 -0.180414 -0.000112154 14.8208 6.08237e-005 4.02249e-006 0.128059 -2.03672e-006 -18.2889 -1.45187 -2.14975 -49.2867 58.4709 3.74458 14.1072 35.9287 -20.2975 1.84413 -5.75834 -1.34436 1.71386e-008 -2.03819e-008 -1.63805e-009 5.1416e-008 -6.11456e-008 -4.91419e-009 -8.82781e-032 1.59028e-015 3.18055e-015 1.71386e-008 -2.03819e-008 -1.63805e-009 -0.0146264 -8.80058e-005 -1.22457e-005 7.95139e-016 -1.39149e-015 -0 1.71386e-008 -2.03819e-008 -1.63805e-009 -0.018723 -0.00117392 5.33532e-005 -2.70352e-031 4.87022e-015 3.18055e-015 1.71386e-008 -2.03819e-008 -1.63805e-009 -0.0122798 -0.003252 0.000670708 -4.77083e-015 2.78299e-015 1.11319e-014 1.71386e-008 -2.03819e-008 -1.63805e-009 5.1416e-008 -6.11456e-008 -4.91419e-009 -8.82781e-032 1.59028e-015 3.18055e-015 11.4506 -2.2004 1.43349 58.3406 58.3363 -3.58807 -15.2939 35.4818 25.4736 -1.33622 -3.52219 -5.15619 1.43827e-006 -1.80812e-007 -9.50876e-006 -1.76556e-031 6.36111e-015 1.59028e-015 1.18859e-006 1.10766e-007 1.79783e-007 1.43827e-006 -1.80812e-007 -9.50876e-006 0.0150006 -9.13704e-005 -7.06208e-007 1.18859e-006 1.10789e-007 1.79768e-007 1.43827e-006 -1.80812e-007 -9.50876e-006 0.0189566 -0.00118727 -5.36547e-005 1.18859e-006 1.10796e-007 1.79752e-007 1.43827e-006 -1.80812e-007 -9.50876e-006 0.0122627 -0.00324424 -0.000678778 1.1886e-006 1.10793e-007 1.79738e-007 1.43827e-006 -1.80812e-007 -9.50876e-006 -1.76556e-031 6.36111e-015 1.59028e-015 1.18859e-006 1.10766e-007 1.79783e-007 -68.0158 -70.4331 -98.7255 -3.44805 34.6299 45.3329 -22.2685 -1.95697 -5.79748 2.65055e-008 -3.42681e-007 -8.88828e-007 71.2949 -70.1407 101.732 3.66269 36.6174 -45.375 22.6589 -2.71764 5.9278 -1.22492e-008 6.1239e-008 2.0401e-007 
39.7405 39.6493 18.5627 179.997 58.9947 3.2456e-011 -0.0269184 8.28838 -0.0845007 -0.0420012 16.5768 -0.167696 -0.0420013 16.5768 -0.167696 1.54187e-006 13.7635 -8.40321e-007 2.51282e-008 0.120051 6.3712e-008 -16.2089 -1.8999 -2.44045 -46.7477 55.0294 3.1729 12.438 34.0288 -18.6324 1.96204 -5.86241 -0.97975 9.93923e-015 2.38542e-014 9.54166e-015 8.74653e-015 2.34566e-014 1.27222e-014 9.93923e-015 2.34566e-014 6.36111e-015 9.93923e-015 2.38542e-014 9.54166e-015 -0.014627 -8.88604e-005 -6.43521e-006 3.57812e-015 -3.97569e-016 1.90833e-014 9.93923e-015 2.38542e-014 9.54166e-015 -0.0187498 -0.0011751 6.25834e-005 -1.76042e-008 1.02343e-007 1.36019e-006 9.93923e-015 2.38542e-014 9.54166e-015 -0.0122775 -0.00324902 0.000682733 -3.97569e-016 -1.98785e-015 -3.18055e-015 9.93923e-015 2.38542e-014 9.54166e-015 8.74653e-015 2.34566e-014 1.27222e-014 9.93923e-015 2.34566e-014 6.36111e-015 9.88578 -2.71263 1.73982 55.2061 54.91 -3.06725 -13.3653 33.7325 23.4114 -1.42255 -3.74956 -5.1137 7.95139e-016 -2.26615e-014 -0 -3.68248e-007 -1.71374e-007 -5.47077e-006 7.95139e-016 1.19271e-015 -0 7.95139e-016 -2.26615e-014 -0 0.0149939 -9.09814e-005 -4.48838e-006 -7.95139e-016 -1.09332e-015 -0 7.95139e-016 -2.26615e-014 -0 0.0189745 -0.0011901 -5.71993e-005 -3.97569e-016 -1.78906e-015 6.36111e-015 7.95139e-016 -2.26615e-014 -0 0.0122202 -0.00323508 -0.000675319 3.97569e-016 -4.96962e-016 9.54166e-015 7.95139e-016 -2.26615e-014 -0 -3.68248e-007 -1.71374e-007 -5.47077e-006 7.95139e-016 1.19271e-015 -0 -53.5818 -72.1418 -83.5274 -1.56526 34.7137 41.8246 -21.9153 -2.26658 -5.76464 1.68266e-006 -4.35931e-007 -2.02326e-007 53.8777 -71.9837 83.7932 1.56921 34.6955 -41.8415 21.6811 -2.28037 5.65661 -4.40047e-006 -4.25432e-007 -1.67965e-007 
39.7417 39.6493 18.5616 179.997 58.9947 3.2456e-011 -0.0275218 8.47141 -0.0842622 -0.0430024 16.9428 -0.167148 -0.0430023 16.9428 -0.167148 -3.04471e-009 13.5886 7.46704e-007 8.10221e-008 0.119591 8.48923e-008 -15.2656 -2.41093 -2.82619 -47.4362 55.0193 3.13206 12.438 34.0288 -18.6324 2.17095 -6.27952 -0.708887 -3.97569e-016 1.98785e-015 -3.18055e-015 -3.97569e-016 1.98785e-015 -6.36111e-015 -7.95139e-016 1.78906e-015 -6.36111e-015 -3.97569e-016 1.98785e-015 -3.18055e-015 -0.0146094 -8.89827e-005 3.04789e-006 -3.97569e-016 -2.38542e-015 -3.18055e-015 -3.97569e-016 1.98785e-015 -3.18055e-015 -0.0187278 -0.0011738 6.90386e-005 -3.97569e-016 -1.59028e-015 -1.27222e-014 -3.97569e-016 1.98785e-015 -3.18055e-015 -0.0122653 -0.00324726 0.000670944 -3.97569e-016 0 3.18055e-015 -3.97569e-016 1.98785e-015 -3.18055e-015 -3.97569e-016 1.98785e-015 -6.36111e-015 -7.95139e-016 1.78906e-015 -6.36111e-015 9.04962 -3.32484 2.10001 55.8189 54.9074 -3.05183 -13.3653 33.7325 23.4114 -1.59682 -4.15781 -5.36245 -7.95139e-016 -3.97569e-016 -0 -3.97569e-016 -3.97569e-016 -0 -7.95139e-016 -3.97569e-016 -0 -7.95139e-016 -3.97569e-016 -0 0.0149818 -9.0714e-005 -4.78849e-006 -2.20695e-032 -1.98785e-016 -6.36111e-015 -7.95139e-016 -3.97569e-016 -0 0.0189886 -0.00119047 -6.25523e-005 -3.97569e-016 2.38542e-015 -0 -7.95139e-016 -3.97569e-016 -0 0.0123149 -0.00325994 -0.000678924 -3.97569e-016 5.96354e-016 3.18055e-015 -7.95139e-016 -3.97569e-016 -0 -3.97569e-016 -3.97569e-016 -0 -7.95139e-016 -3.97569e-016 -0 -52.9729 -72.5034 -82.96 -1.56568 34.7268 41.8231 -22.3525 -2.23791 -5.97245 -4.12353e-008 -9.08047e-007 2.90417e-007 53.5449 -72.2089 83.484 1.56944 34.7023 -41.8413 21.956 -2.27361 5.79129 1.66717e-006 1.12725e-007 4.93905e-007 
39.7429 39.6494 18.5606 179.997 58.9947 3.2456e-011 -0.028128 8.65487 -0.0840169 -0.0440121 17.3097 -0.166584 -0.0440121 17.3097 -0.166584 2.14147e-007 13.4134 -8.47377e-007 -4.26311e-008 0.119132 3.94995e-008 -14.3246 -2.9286 -3.20389 -48.1248 55.0095 3.09107 12.438 34.0288 -18.6324 2.38204 -6.6957 -0.436246 6.21237e-008 4.38225e-007 2.62118e-006 -1.42306e-007 2.72093e-007 1.42134e-006 9.54166e-015 2.3059e-014 6.36111e-015 6.21237e-008 4.38225e-007 2.62118e-006 -0.014607 -8.83601e-005 1.31157e-006 -7.95139e-016 -5.96354e-016 -9.54166e-015 6.21237e-008 4.38225e-007 2.62118e-006 -0.0187723 -0.00117666 5.43688e-005 -3.97569e-016 9.93923e-016 -3.18055e-015 6.21237e-008 4.38225e-007 2.62118e-006 -0.0122878 -0.00325358 0.00067037 -3.97569e-016 9.93923e-016 -3.18055e-015 6.21237e-008 4.38225e-007 2.62118e-006 -1.42306e-007 2.72093e-007 1.42134e-006 9.54166e-015 2.3059e-014 6.36111e-015 8.21619 -3.94262 2.45169 56.4319 54.9048 -3.03642 -13.3653 33.7325 23.4114 -1.77299 -4.56537 -5.61262 -1.90538e-008 -9.7262e-008 1.42446e-006 -0 -2.78299e-015 -0 1.21382e-031 -2.18663e-015 3.18055e-015 -1.90538e-008 -9.7262e-008 1.42446e-006 0.0149791 -9.07383e-005 -3.53874e-006 3.97569e-016 1.98785e-016 -3.18055e-015 -1.90538e-008 -9.7262e-008 1.42446e-006 0.0189964 -0.00119119 -6.18737e-005 -3.97569e-016 -5.96354e-016 3.18055e-015 -1.90538e-008 -9.7262e-008 1.42446e-006 0.0122816 -0.00325131 -0.0006764 -3.97569e-016 1.39149e-015 -9.54166e-015 -1.90538e-008 -9.7262e-008 1.42446e-006 -0 -2.78299e-015 -0 1.21382e-031 -2.18663e-015 3.18055e-015 -52.3408 -72.8632 -82.3693 -1.56611 34.7407 41.8214 -22.7899 -2.20802 -6.18012 -5.66536e-015 -7.95139e-016 -7.95139e-016 53.2049 -72.4336 83.1674 1.56966 34.7095 -41.841 22.231 -2.26636 5.92596 2.48481e-015 7.95139e-016 -7.95139e-016 
39.7441 39.6495 18.5596 179.997 58.9947 3.2456e-011 -0.0287359 8.83858 -0.0837655 -0.0450296 17.6772 -0.166003 -0.0450295 17.6772 -0.166003 6.56469e-007 13.2382 -4.1966e-007 -6.06814e-008 0.118678 -9.05895e-008 -13.3861 -3.45263 -3.5734 -48.8133 54.9999 3.04986 12.438 34.0288 -18.6324 2.59534 -7.11092 -0.161735 -1.08384e-007 3.10937e-007 2.57367e-006 -1.19271e-015 1.19271e-015 -0 2.77342e-008 1.59258e-007 -2.58781e-006 -1.08384e-007 3.10937e-007 2.57367e-006 -0.0145846 -8.83316e-005 7.61295e-006 4.56495e-008 2.98248e-007 -8.80695e-009 -1.08384e-007 3.10937e-007 2.57367e-006 -0.0187894 -0.00117749 6.34709e-005 4.56496e-008 2.98248e-007 -8.79643e-009 -1.08384e-007 3.10937e-007 2.57367e-006 -0.0122997 -0.00325595 0.000684668 4.5651e-008 2.98247e-007 -8.81414e-009 -1.08384e-007 3.10937e-007 2.57367e-006 -1.19271e-015 1.19271e-015 -0 2.77342e-008 1.59258e-007 -2.58781e-006 7.3855 -4.56574 2.79477 57.0449 54.9023 -3.02094 -13.3653 33.7325 23.4114 -1.95107 -4.97219 -5.86423 3.97569e-016 -2.5842e-015 -3.18055e-015 1.65521e-031 -2.98177e-015 3.18055e-015 -1.32417e-031 -2.38542e-015 -3.18055e-015 3.97569e-016 -2.5842e-015 -3.18055e-015 0.0150263 -9.11372e-005 -4.81744e-006 3.97569e-016 -2.18663e-015 -0 3.97569e-016 -2.5842e-015 -3.18055e-015 0.0189997 -0.00119138 -5.93101e-005 -7.55382e-015 2.3059e-014 -0 3.97569e-016 -2.5842e-015 -3.18055e-015 0.0122386 -0.00323958 -0.000668553 1.19271e-015 1.98785e-016 -3.18055e-015 3.97569e-016 -2.5842e-015 -3.18055e-015 1.65521e-031 -2.98177e-015 3.18055e-015 -1.32417e-031 -2.38542e-015 -3.18055e-015 -51.6835 -73.221 -81.7534 -1.56656 34.7552 41.8196 -23.2274 -2.17677 -6.38757 -8.31899e-009 -3.29924e-008 2.10635e-007 52.8567 -72.6577 82.8428 1.5699 34.717 -41.8406 22.5061 -2.25859 6.06061 4.19088e-007 -2.71396e-007 1.07119e-007 
